<svg height="1022" width="720" xmlns="http://www.w3.org/2000/svg">
<rect height="1022" fill="#555" width="720"></rect>
<text fill="#7f7" font-family="Courier New" font-size="12" xml:space="preserve">
<tspan x="10" y="26">4 megabytes installed</tspan>
<tspan x="10" y="42"></tspan>
<tspan x="10" y="58">node_modules</tspan>
<tspan x="10" y="74">└─┬ browserify-fs@1.0.0 </tspan>
<tspan x="10" y="90">  ├─┬ level-filesystem@1.2.0 </tspan>
<tspan x="10" y="106">  │ ├─┬ concat-stream@1.6.0 </tspan>
<tspan x="10" y="122">  │ │ ├── inherits@2.0.3 </tspan>
<tspan x="10" y="138">  │ │ ├─┬ readable-stream@2.2.9 </tspan>
<tspan x="10" y="154">  │ │ │ ├── buffer-shims@1.0.0 </tspan>
<tspan x="10" y="170">  │ │ │ ├── isarray@1.0.0 </tspan>
<tspan x="10" y="186">  │ │ │ ├── process-nextick-args@1.0.7 </tspan>
<tspan x="10" y="202">  │ │ │ ├── string_decoder@1.0.0 </tspan>
<tspan x="10" y="218">  │ │ │ └── util-deprecate@1.0.2 </tspan>
<tspan x="10" y="234">  │ │ └── typedarray@0.0.6 </tspan>
<tspan x="10" y="250">  │ ├── errno@0.1.4 </tspan>
<tspan x="10" y="266">  │ ├─┬ fwd-stream@1.0.4 </tspan>
<tspan x="10" y="282">  │ │ └─┬ readable-stream@1.0.34 </tspan>
<tspan x="10" y="298">  │ │   ├── isarray@0.0.1 </tspan>
<tspan x="10" y="314">  │ │   └── string_decoder@0.10.31 </tspan>
<tspan x="10" y="330">  │ ├─┬ level-blobs@0.1.7 </tspan>
<tspan x="10" y="346">  │ │ └─┬ readable-stream@1.1.14 </tspan>
<tspan x="10" y="362">  │ │   ├── isarray@0.0.1 </tspan>
<tspan x="10" y="378">  │ │   └── string_decoder@0.10.31 </tspan>
<tspan x="10" y="394">  │ ├─┬ level-peek@1.0.6 </tspan>
<tspan x="10" y="410">  │ │ └── level-fix-range@1.0.2 </tspan>
<tspan x="10" y="426">  │ ├─┬ level-sublevel@5.2.3 </tspan>
<tspan x="10" y="442">  │ │ ├─┬ level-fix-range@2.0.0 </tspan>
<tspan x="10" y="458">  │ │ │ └── clone@0.1.19 </tspan>
<tspan x="10" y="474">  │ │ ├── level-hooks@4.5.0 </tspan>
<tspan x="10" y="490">  │ │ ├── string-range@1.2.2 </tspan>
<tspan x="10" y="506">  │ │ └─┬ xtend@2.0.6 </tspan>
<tspan x="10" y="522">  │ │   ├── is-object@0.1.2 </tspan>
<tspan x="10" y="538">  │ │   └─┬ object-keys@0.2.0 </tspan>
<tspan x="10" y="554">  │ │     ├── foreach@2.0.5 </tspan>
<tspan x="10" y="570">  │ │     ├── indexof@0.0.1 </tspan>
<tspan x="10" y="586">  │ │     └── is@0.2.7 </tspan>
<tspan x="10" y="602">  │ ├── octal@1.0.0 </tspan>
<tspan x="10" y="618">  │ ├─┬ once@1.4.0 </tspan>
<tspan x="10" y="634">  │ │ └── wrappy@1.0.2 </tspan>
<tspan x="10" y="650">  │ └── xtend@2.2.0 </tspan>
<tspan x="10" y="666">  ├─┬ level-js@2.2.4 </tspan>
<tspan x="10" y="682">  │ ├─┬ abstract-leveldown@0.12.4 </tspan>
<tspan x="10" y="698">  │ │ └── xtend@3.0.0 </tspan>
<tspan x="10" y="714">  │ ├── idb-wrapper@1.7.1 </tspan>
<tspan x="10" y="730">  │ ├── isbuffer@0.0.0 </tspan>
<tspan x="10" y="746">  │ ├── ltgt@2.1.3 </tspan>
<tspan x="10" y="762">  │ ├── typedarray-to-buffer@1.0.4 </tspan>
<tspan x="10" y="778">  │ └─┬ xtend@2.1.2 </tspan>
<tspan x="10" y="794">  │   └── object-keys@0.4.0 </tspan>
<tspan x="10" y="810">  └─┬ levelup@0.18.6 </tspan>
<tspan x="10" y="826">    ├─┬ bl@0.8.2 </tspan>
<tspan x="10" y="842">    │ └─┬ readable-stream@1.0.34 </tspan>
<tspan x="10" y="858">    │   ├── isarray@0.0.1 </tspan>
<tspan x="10" y="874">    │   └── string_decoder@0.10.31 </tspan>
<tspan x="10" y="890">    ├── deferred-leveldown@0.2.0 </tspan>
<tspan x="10" y="906">    ├── prr@0.0.0 </tspan>
<tspan x="10" y="922">    ├─┬ readable-stream@1.0.34 </tspan>
<tspan x="10" y="938">    │ ├── core-util-is@1.0.2 </tspan>
<tspan x="10" y="954">    │ ├── isarray@0.0.1 </tspan>
<tspan x="10" y="970">    │ └── string_decoder@0.10.31 </tspan>
<tspan x="10" y="986">    ├── semver@2.3.2 </tspan>
<tspan x="10" y="1002">    └── xtend@3.0.0</tspan>
</text>
</svg>
